<svg width="337" height="391" viewBox="0 0 337 391" fill="none" xmlns="http://www.w3.org/2000/svg">
<g filter="url(#filter0_d_13_191)">
<path fill-rule="evenodd" clip-rule="evenodd" d="M66.2985 250.441C56.5163 256.738 47.7529 262.379 50.7542 268.225C55.3569 277.191 70.0927 270.366 85.146 263.395C104.281 254.532 123.929 245.433 123.929 268.225C123.929 271.374 123.792 275.093 123.644 279.08C122.776 302.6 121.563 335.467 146.143 315.736C157.903 276.37 177.078 252.613 193.184 269.583C199.304 277.53 201.841 293.954 204.291 309.815C208.118 334.593 211.734 357.996 228.464 345.553C236.328 338.38 233.99 325.893 231.376 311.937C229.96 304.38 228.464 296.392 228.464 288.585C228.464 264.153 228.464 228.86 245.451 215.285C248.683 215.285 251.848 215.011 254.976 214.74C265.766 213.804 276.123 212.907 287.266 223.428C309.479 238.36 331.846 234.897 333 220.713C333 196.279 324.605 173.117 310.786 185.422C292.493 201.711 263.771 186.329 255.744 166.416C239.461 148.81 249.372 130.575 287.266 101.26C348.68 53.75 261.132 13.0263 245.451 68.6813C240.225 141.983 140.916 166.416 156.596 55.1074C190.57 6.23952 122.949 -20.9096 123.929 19.8139C126.542 128.409 88.6482 113.477 48.1406 74.1113C31.1539 33.3881 -9.35398 86.3283 23.2416 109.405C80.808 118.907 83.4213 163.702 59.9008 178.634C50.4433 184.638 38.4507 185.814 28.0004 186.838C12.4611 188.362 0.332182 189.551 5.01966 205.783C14.2447 227.345 39.6063 222.164 59.5422 218.091C73.4929 215.241 84.7866 212.934 86.0347 220.713C93.4163 232.983 78.9988 242.265 66.2985 250.441ZM72.968 352.519C87.3416 356.142 88.6483 352.519 88.6483 352.519C98.5183 356.699 96.7627 361.41 94.1135 368.519C93.6061 369.881 93.066 371.33 92.5684 372.881C89.955 381.025 83.4215 382.383 83.4215 382.383C83.4215 382.383 77.1287 383.404 74.2747 381.025C71.9402 379.079 70.9653 377.012 70.0603 375.094C69.1805 373.229 68.3668 371.504 66.4345 370.166C64.9446 368.413 62.1729 368.569 59.4097 368.725C56.7814 368.873 54.1607 369.021 52.658 367.525C48.2212 363.108 53.6335 358.414 57.1379 356.142C59.4157 354.665 63.2321 354.156 66.7844 353.683C69.1356 353.37 71.371 353.072 72.968 352.519Z" fill="#FF8C9F"/>
</g>
<path d="M101.449 189.281C101.449 189.763 101.482 190.212 101.547 190.629C101.612 191.033 101.736 191.384 101.918 191.684C102.1 191.996 102.341 192.237 102.641 192.406C102.953 192.589 103.357 192.68 103.852 192.68C104.451 192.68 105.043 192.465 105.629 192.035C106.228 191.618 106.794 191.098 107.328 190.473C107.875 189.835 108.389 189.145 108.871 188.402C109.366 187.66 109.809 186.977 110.199 186.352C110.59 185.714 110.928 185.186 111.215 184.77C111.501 184.34 111.716 184.125 111.859 184.125C111.924 184.125 112.009 184.145 112.113 184.184C112.217 184.21 112.309 184.255 112.387 184.32C112.465 184.385 112.517 184.477 112.543 184.594C112.569 184.711 112.543 184.848 112.465 185.004C112.087 185.746 111.664 186.521 111.195 187.328C110.74 188.135 110.245 188.93 109.711 189.711C109.177 190.479 108.611 191.215 108.012 191.918C107.413 192.621 106.788 193.24 106.137 193.773C105.486 194.307 104.809 194.73 104.105 195.043C103.415 195.355 102.706 195.512 101.977 195.512C101.195 195.512 100.486 195.382 99.8477 195.121C99.2096 194.861 98.6628 194.464 98.207 193.93C97.7513 193.396 97.3997 192.712 97.1523 191.879C96.9049 191.046 96.7812 190.062 96.7812 188.93C96.7812 187.432 96.9701 185.889 97.3477 184.301C97.7253 182.712 98.2461 181.124 98.9102 179.535C99.5742 177.934 100.349 176.365 101.234 174.828C102.12 173.292 103.07 171.84 104.086 170.473C105.115 169.092 106.176 167.823 107.27 166.664C108.376 165.505 109.47 164.503 110.551 163.656C111.632 162.81 112.68 162.152 113.695 161.684C114.711 161.202 115.642 160.961 116.488 160.961C117.139 160.961 117.68 161.059 118.109 161.254C118.539 161.436 118.878 161.677 119.125 161.977C119.385 162.276 119.561 162.621 119.652 163.012C119.757 163.389 119.809 163.773 119.809 164.164C119.809 164.854 119.711 165.499 119.516 166.098C119.333 166.684 119.092 167.217 118.793 167.699C118.493 168.168 118.161 168.585 117.797 168.949C117.432 169.314 117.074 169.62 116.723 169.867C116.371 170.115 116.039 170.303 115.727 170.434C115.427 170.551 115.193 170.609 115.023 170.609C114.841 170.609 114.711 170.59 114.633 170.551C114.568 170.512 114.535 170.382 114.535 170.16C114.587 169.77 114.73 169.385 114.965 169.008C115.199 168.617 115.447 168.201 115.707 167.758C115.967 167.315 116.195 166.82 116.391 166.273C116.599 165.727 116.703 165.102 116.703 164.398C116.703 164.216 116.684 164.027 116.645 163.832C116.618 163.624 116.566 163.435 116.488 163.266C116.423 163.096 116.326 162.96 116.195 162.855C116.065 162.738 115.902 162.68 115.707 162.68C115.147 162.68 114.516 162.921 113.812 163.402C113.109 163.884 112.367 164.555 111.586 165.414C110.818 166.26 110.03 167.263 109.223 168.422C108.428 169.568 107.654 170.811 106.898 172.152C106.156 173.493 105.453 174.906 104.789 176.391C104.125 177.862 103.546 179.34 103.051 180.824C102.556 182.309 102.165 183.773 101.879 185.219C101.592 186.651 101.449 188.005 101.449 189.281ZM128.676 163.93C128.676 164.516 128.546 165.232 128.285 166.078C128.038 166.924 127.68 167.868 127.211 168.91C126.755 169.939 126.202 171.052 125.551 172.25C124.9 173.448 124.177 174.691 123.383 175.98C122.602 177.257 121.755 178.559 120.844 179.887C119.932 181.202 118.982 182.504 117.992 183.793C117.953 184.171 117.927 184.542 117.914 184.906C117.914 185.258 117.914 185.596 117.914 185.922C117.914 186.417 117.934 186.866 117.973 187.27C118.012 187.66 118.083 188.005 118.188 188.305C118.305 188.591 118.461 188.812 118.656 188.969C118.852 189.125 119.099 189.203 119.398 189.203C119.646 189.203 119.9 189.118 120.16 188.949C120.434 188.767 120.701 188.533 120.961 188.246C121.221 187.96 121.469 187.634 121.703 187.27C121.951 186.905 122.178 186.54 122.387 186.176C122.595 185.811 122.784 185.46 122.953 185.121C123.122 184.783 123.253 184.49 123.344 184.242C123.409 184.099 123.48 184.014 123.559 183.988C123.65 183.949 123.715 183.93 123.754 183.93C123.832 183.93 123.897 183.962 123.949 184.027C124.001 184.092 124.027 184.177 124.027 184.281C124.027 184.333 124.001 184.411 123.949 184.516C123.507 185.57 123.031 186.547 122.523 187.445C122.016 188.344 121.495 189.118 120.961 189.77C120.427 190.421 119.893 190.928 119.359 191.293C118.839 191.658 118.344 191.84 117.875 191.84C117.51 191.84 117.159 191.762 116.82 191.605C116.482 191.449 116.176 191.189 115.902 190.824C115.642 190.46 115.434 189.978 115.277 189.379C115.108 188.767 115.023 188.012 115.023 187.113C115.023 185.876 115.154 184.6 115.414 183.285C115.661 181.957 115.993 180.642 116.41 179.34C116.827 178.025 117.296 176.742 117.816 175.492C118.35 174.242 118.891 173.064 119.438 171.957C119.984 170.85 120.518 169.841 121.039 168.93C121.56 168.018 122.022 167.243 122.426 166.605C122.882 165.876 123.324 165.212 123.754 164.613C124.197 164.014 124.613 163.507 125.004 163.09C125.408 162.66 125.792 162.335 126.156 162.113C126.521 161.879 126.866 161.762 127.191 161.762C127.673 161.762 128.038 161.964 128.285 162.367C128.546 162.758 128.676 163.279 128.676 163.93ZM118.91 179.008C118.754 179.594 118.611 180.154 118.48 180.688C118.363 181.221 118.266 181.736 118.188 182.23C119.424 180.421 120.512 178.689 121.449 177.035C122.387 175.382 123.168 173.884 123.793 172.543C124.418 171.189 124.887 170.03 125.199 169.066C125.512 168.09 125.668 167.374 125.668 166.918C125.668 166.658 125.635 166.482 125.57 166.391C125.505 166.286 125.395 166.234 125.238 166.234C125.043 166.234 124.783 166.443 124.457 166.859C124.132 167.263 123.773 167.803 123.383 168.48C122.992 169.158 122.582 169.939 122.152 170.824C121.723 171.697 121.306 172.608 120.902 173.559C120.499 174.509 120.121 175.46 119.77 176.41C119.418 177.348 119.132 178.214 118.91 179.008ZM134.359 171C134.359 171.286 134.275 171.632 134.105 172.035C133.936 172.426 133.715 172.803 133.441 173.168C133.181 173.52 132.888 173.819 132.562 174.066C132.25 174.314 131.944 174.438 131.645 174.438C131.241 174.438 130.896 174.314 130.609 174.066C130.336 173.819 130.199 173.559 130.199 173.285C130.199 173.168 130.238 172.992 130.316 172.758C130.408 172.523 130.518 172.27 130.648 171.996C130.792 171.71 130.954 171.423 131.137 171.137C131.332 170.837 131.534 170.57 131.742 170.336C131.964 170.089 132.178 169.893 132.387 169.75C132.608 169.594 132.823 169.516 133.031 169.516C133.552 169.516 133.904 169.639 134.086 169.887C134.268 170.134 134.359 170.505 134.359 171ZM131.84 184.516C131.384 185.544 130.883 186.488 130.336 187.348C129.802 188.194 129.249 188.923 128.676 189.535C128.103 190.134 127.51 190.603 126.898 190.941C126.299 191.28 125.707 191.449 125.121 191.449C124.678 191.449 124.301 191.352 123.988 191.156C123.676 190.974 123.422 190.72 123.227 190.395C123.018 190.069 122.868 189.691 122.777 189.262C122.686 188.819 122.641 188.344 122.641 187.836C122.641 186.885 122.771 185.948 123.031 185.023C123.292 184.086 123.624 183.174 124.027 182.289C124.444 181.391 124.913 180.512 125.434 179.652C125.954 178.793 126.475 177.96 126.996 177.152C127.113 176.957 127.257 176.781 127.426 176.625C127.595 176.469 127.758 176.391 127.914 176.391C128.135 176.391 128.357 176.43 128.578 176.508C128.799 176.586 129.001 176.69 129.184 176.82C129.366 176.938 129.509 177.074 129.613 177.23C129.73 177.374 129.789 177.523 129.789 177.68C129.789 177.862 129.678 178.161 129.457 178.578C129.236 178.995 128.956 179.496 128.617 180.082C128.279 180.655 127.914 181.293 127.523 181.996C127.146 182.699 126.788 183.428 126.449 184.184C126.111 184.939 125.831 185.701 125.609 186.469C125.388 187.224 125.277 187.947 125.277 188.637C125.277 188.806 125.284 188.975 125.297 189.145C125.323 189.301 125.368 189.444 125.434 189.574C125.512 189.691 125.622 189.789 125.766 189.867C125.922 189.932 126.13 189.965 126.391 189.965C126.664 189.965 127.003 189.802 127.406 189.477C127.823 189.151 128.253 188.721 128.695 188.188C129.151 187.641 129.6 187.029 130.043 186.352C130.499 185.661 130.896 184.958 131.234 184.242C131.339 184.034 131.456 183.93 131.586 183.93C131.677 183.93 131.755 183.956 131.82 184.008C131.885 184.06 131.918 184.138 131.918 184.242C131.918 184.32 131.892 184.411 131.84 184.516ZM134.086 186C134.086 186.456 134.138 186.898 134.242 187.328C134.346 187.758 134.496 188.142 134.691 188.48C134.9 188.806 135.16 189.073 135.473 189.281C135.798 189.49 136.176 189.594 136.605 189.594C137.204 189.594 137.784 189.444 138.344 189.145C138.917 188.832 139.451 188.428 139.945 187.934C140.453 187.439 140.909 186.872 141.312 186.234C141.729 185.583 142.081 184.919 142.367 184.242C142.406 184.138 142.458 184.06 142.523 184.008C142.589 183.956 142.654 183.93 142.719 183.93C142.81 183.93 142.888 183.956 142.953 184.008C143.018 184.047 143.051 184.125 143.051 184.242C143.051 184.281 143.044 184.32 143.031 184.359C143.018 184.398 142.999 184.451 142.973 184.516C142.699 185.193 142.309 185.941 141.801 186.762C141.293 187.582 140.681 188.35 139.965 189.066C139.262 189.77 138.467 190.362 137.582 190.844C136.697 191.326 135.746 191.566 134.73 191.566C134.145 191.566 133.598 191.449 133.09 191.215C132.595 190.993 132.159 190.674 131.781 190.258C131.404 189.841 131.111 189.333 130.902 188.734C130.681 188.122 130.57 187.439 130.57 186.684C130.57 185.928 130.688 185.128 130.922 184.281C131.156 183.422 131.475 182.576 131.879 181.742C132.296 180.909 132.784 180.108 133.344 179.34C133.904 178.572 134.509 177.895 135.16 177.309C135.811 176.723 136.495 176.26 137.211 175.922C137.927 175.57 138.643 175.395 139.359 175.395C139.971 175.395 140.421 175.596 140.707 176C141.007 176.404 141.156 176.951 141.156 177.641C141.156 178.188 141.033 178.702 140.785 179.184C140.551 179.665 140.264 180.082 139.926 180.434C139.6 180.785 139.268 181.065 138.93 181.273C138.604 181.469 138.35 181.566 138.168 181.566C138.012 181.566 137.934 181.495 137.934 181.352C137.934 181.299 137.973 181.195 138.051 181.039C138.168 180.805 138.285 180.551 138.402 180.277C138.533 179.991 138.643 179.711 138.734 179.438C138.839 179.164 138.923 178.897 138.988 178.637C139.053 178.376 139.086 178.148 139.086 177.953C139.086 177.536 138.897 177.328 138.52 177.328C138.246 177.328 137.947 177.445 137.621 177.68C137.309 177.914 136.983 178.233 136.645 178.637C136.319 179.04 136 179.522 135.688 180.082C135.388 180.629 135.115 181.228 134.867 181.879C134.633 182.517 134.444 183.188 134.301 183.891C134.158 184.594 134.086 185.297 134.086 186ZM157.133 184.516C156.677 185.57 156.169 186.547 155.609 187.445C155.062 188.344 154.49 189.125 153.891 189.789C153.305 190.453 152.699 190.974 152.074 191.352C151.449 191.729 150.831 191.918 150.219 191.918C149.75 191.918 149.301 191.807 148.871 191.586C148.454 191.365 148.064 191.078 147.699 190.727C147.335 190.362 146.996 189.952 146.684 189.496C146.384 189.027 146.111 188.552 145.863 188.07C145.616 187.589 145.401 187.113 145.219 186.645C145.036 186.176 144.887 185.759 144.77 185.395C144.691 185.499 144.613 185.603 144.535 185.707C144.47 185.798 144.405 185.883 144.34 185.961C143.715 186.742 143.24 187.465 142.914 188.129C142.589 188.793 142.322 189.372 142.113 189.867C141.905 190.349 141.716 190.727 141.547 191C141.378 191.286 141.137 191.436 140.824 191.449C140.655 191.449 140.479 191.404 140.297 191.312C140.115 191.221 140.023 191.026 140.023 190.727C140.023 190.31 140.167 189.665 140.453 188.793C140.74 187.921 141.156 186.872 141.703 185.648C141.977 185.023 142.289 184.294 142.641 183.461C142.992 182.628 143.376 181.716 143.793 180.727C144.223 179.737 144.685 178.702 145.18 177.621C145.688 176.527 146.221 175.414 146.781 174.281C147.328 173.135 147.908 172.009 148.52 170.902C149.132 169.796 149.717 168.767 150.277 167.816C150.85 166.866 151.371 166.026 151.84 165.297C152.309 164.555 152.673 163.988 152.934 163.598C153.181 163.233 153.389 162.947 153.559 162.738C153.741 162.517 153.936 162.406 154.145 162.406C154.275 162.406 154.392 162.504 154.496 162.699C154.613 162.882 154.717 163.103 154.809 163.363C154.9 163.624 154.971 163.904 155.023 164.203C155.076 164.49 155.102 164.73 155.102 164.926C155.102 164.991 155.089 165.128 155.062 165.336C155.049 165.544 154.991 165.811 154.887 166.137C154.796 166.449 154.652 166.82 154.457 167.25C154.262 167.667 153.995 168.116 153.656 168.598C153.37 169.014 153.025 169.522 152.621 170.121C152.23 170.72 151.814 171.371 151.371 172.074C150.928 172.777 150.473 173.52 150.004 174.301C149.548 175.069 149.112 175.837 148.695 176.605C148.383 177.165 148.051 177.771 147.699 178.422C147.348 179.073 146.99 179.737 146.625 180.414C146.26 181.091 145.896 181.768 145.531 182.445C145.18 183.109 144.848 183.734 144.535 184.32C145.134 183.539 145.701 182.849 146.234 182.25C146.768 181.651 147.243 181.143 147.66 180.727C148.142 180.232 148.585 179.802 148.988 179.438C150.368 178.214 151.462 177.302 152.27 176.703C153.077 176.104 153.689 175.805 154.105 175.805C154.301 175.805 154.49 175.87 154.672 176C154.867 176.117 155.03 176.28 155.16 176.488C155.303 176.697 155.414 176.938 155.492 177.211C155.583 177.471 155.629 177.745 155.629 178.031C155.629 178.591 155.505 179.158 155.258 179.73C155.01 180.29 154.678 180.837 154.262 181.371C153.858 181.892 153.389 182.393 152.855 182.875C152.335 183.344 151.788 183.767 151.215 184.145C150.655 184.509 150.089 184.815 149.516 185.062C148.956 185.297 148.441 185.447 147.973 185.512C148.22 186.501 148.507 187.289 148.832 187.875C149.158 188.461 149.483 188.91 149.809 189.223C150.147 189.535 150.466 189.737 150.766 189.828C151.065 189.919 151.312 189.965 151.508 189.965C151.951 189.965 152.393 189.815 152.836 189.516C153.279 189.203 153.715 188.793 154.145 188.285C154.574 187.764 154.984 187.159 155.375 186.469C155.779 185.766 156.169 185.023 156.547 184.242C156.651 184.034 156.768 183.93 156.898 183.93C156.977 183.93 157.048 183.956 157.113 184.008C157.178 184.06 157.211 184.138 157.211 184.242C157.211 184.32 157.185 184.411 157.133 184.516ZM152.25 178.676C151.938 178.832 151.521 179.112 151 179.516C150.492 179.919 149.939 180.388 149.34 180.922C148.741 181.443 148.129 182.003 147.504 182.602C146.879 183.201 146.306 183.773 145.785 184.32C146.228 184.281 146.697 184.184 147.191 184.027C147.699 183.871 148.194 183.663 148.676 183.402C149.158 183.142 149.613 182.829 150.043 182.465C150.473 182.087 150.837 181.664 151.137 181.195C151.28 180.948 151.423 180.688 151.566 180.414C151.684 180.18 151.807 179.913 151.938 179.613C152.068 179.301 152.172 178.988 152.25 178.676ZM173.676 168.031C173.585 168.201 173.428 168.493 173.207 168.91C172.999 169.314 172.745 169.809 172.445 170.395C172.146 170.98 171.814 171.638 171.449 172.367C171.085 173.083 170.707 173.839 170.316 174.633C170.902 174.594 171.43 174.555 171.898 174.516C172.38 174.464 172.725 174.438 172.934 174.438C172.999 174.438 173.044 174.464 173.07 174.516C173.109 174.555 173.129 174.607 173.129 174.672C173.129 174.776 173.096 174.887 173.031 175.004C172.979 175.121 172.934 175.212 172.895 175.277C172.738 175.512 172.569 175.759 172.387 176.02C172.217 176.267 172.035 176.501 171.84 176.723C171.645 176.944 171.443 177.133 171.234 177.289C171.026 177.445 170.805 177.536 170.57 177.562C170.154 177.641 169.594 177.641 168.891 177.562C168.565 178.227 168.246 178.891 167.934 179.555C167.634 180.206 167.348 180.831 167.074 181.43C166.814 182.029 166.573 182.595 166.352 183.129C166.143 183.65 165.961 184.112 165.805 184.516C165.44 185.531 165.128 186.397 164.867 187.113C164.607 187.816 164.477 188.435 164.477 188.969C164.477 189.307 164.568 189.587 164.75 189.809C164.945 190.017 165.271 190.121 165.727 190.121C166.026 190.121 166.391 189.952 166.82 189.613C167.263 189.262 167.719 188.806 168.188 188.246C168.656 187.686 169.118 187.055 169.574 186.352C170.03 185.648 170.427 184.945 170.766 184.242C170.87 184.034 170.987 183.93 171.117 183.93C171.208 183.93 171.286 183.956 171.352 184.008C171.417 184.06 171.449 184.138 171.449 184.242C171.449 184.32 171.423 184.411 171.371 184.516C170.902 185.544 170.388 186.514 169.828 187.426C169.268 188.324 168.689 189.112 168.09 189.789C167.491 190.453 166.879 190.98 166.254 191.371C165.642 191.762 165.036 191.957 164.438 191.957C163.591 191.957 162.986 191.723 162.621 191.254C162.243 190.785 162.055 190.102 162.055 189.203C162.055 188.552 162.126 187.849 162.27 187.094C162.4 186.339 162.615 185.486 162.914 184.535C163.214 183.585 163.611 182.51 164.105 181.312C164.6 180.115 165.206 178.741 165.922 177.191C165.622 177.126 165.336 177.068 165.062 177.016C164.789 176.964 164.542 176.905 164.32 176.84C164.164 176.801 164.04 176.775 163.949 176.762C163.858 176.749 163.812 176.71 163.812 176.645C163.812 176.501 163.852 176.371 163.93 176.254C164.021 176.137 164.138 176 164.281 175.844C164.346 175.74 164.424 175.616 164.516 175.473C164.62 175.329 164.743 175.238 164.887 175.199C164.991 175.173 165.232 175.134 165.609 175.082C166 175.03 166.482 174.965 167.055 174.887C167.602 173.754 168.194 172.549 168.832 171.273C169.47 169.984 170.18 168.585 170.961 167.074C171.104 166.801 171.254 166.54 171.41 166.293C171.566 166.033 171.723 165.805 171.879 165.609C172.035 165.414 172.185 165.258 172.328 165.141C172.484 165.023 172.628 164.965 172.758 164.965C172.914 164.965 173.064 165.043 173.207 165.199C173.35 165.342 173.467 165.525 173.559 165.746C173.663 165.967 173.741 166.202 173.793 166.449C173.858 166.684 173.891 166.892 173.891 167.074C173.891 167.322 173.871 167.517 173.832 167.66C173.793 167.79 173.741 167.914 173.676 168.031ZM183.695 184.164C183.539 184.555 183.324 184.984 183.051 185.453C182.79 185.922 182.471 186.358 182.094 186.762C181.729 187.152 181.312 187.484 180.844 187.758C180.375 188.031 179.848 188.168 179.262 188.168C179.092 188.168 178.93 188.155 178.773 188.129C178.63 188.103 178.487 188.057 178.344 187.992C177.979 188.539 177.589 189.053 177.172 189.535C176.768 190.017 176.332 190.44 175.863 190.805C175.395 191.156 174.9 191.436 174.379 191.645C173.871 191.853 173.337 191.957 172.777 191.957C172.257 191.957 171.794 191.866 171.391 191.684C171 191.501 170.668 191.247 170.395 190.922C170.121 190.596 169.919 190.212 169.789 189.77C169.646 189.314 169.574 188.819 169.574 188.285C169.574 187.777 169.646 187.172 169.789 186.469C169.919 185.766 170.147 185.023 170.473 184.242C170.785 183.461 171.189 182.667 171.684 181.859C172.191 181.052 172.81 180.29 173.539 179.574C174.268 178.845 175.115 178.194 176.078 177.621C177.055 177.035 178.168 176.573 179.418 176.234H179.574C179.743 176.234 179.9 176.267 180.043 176.332C180.186 176.397 180.31 176.482 180.414 176.586C180.518 176.69 180.596 176.801 180.648 176.918C180.714 177.035 180.746 177.139 180.746 177.23C180.746 177.439 180.688 177.589 180.57 177.68C180.453 177.771 180.284 177.836 180.062 177.875C179.945 177.901 179.743 177.94 179.457 177.992C179.184 178.031 178.839 178.142 178.422 178.324C178.018 178.493 177.562 178.767 177.055 179.145C176.547 179.509 176.013 180.023 175.453 180.688C175.076 181.13 174.711 181.664 174.359 182.289C174.021 182.901 173.721 183.539 173.461 184.203C173.201 184.867 172.986 185.531 172.816 186.195C172.66 186.846 172.582 187.432 172.582 187.953C172.582 188.643 172.745 189.184 173.07 189.574C173.396 189.965 173.78 190.16 174.223 190.16C174.704 190.16 175.219 189.906 175.766 189.398C176.326 188.878 176.879 188.188 177.426 187.328C177.165 187.003 176.951 186.599 176.781 186.117C176.612 185.635 176.527 185.062 176.527 184.398C176.527 183.669 176.618 182.94 176.801 182.211C176.996 181.482 177.25 180.824 177.562 180.238C177.875 179.652 178.227 179.177 178.617 178.812C179.021 178.435 179.431 178.246 179.848 178.246C180.251 178.246 180.551 178.428 180.746 178.793C180.954 179.145 181.059 179.613 181.059 180.199C181.059 180.59 181.007 181.059 180.902 181.605C180.798 182.139 180.648 182.719 180.453 183.344C180.258 183.969 180.017 184.613 179.73 185.277C179.457 185.941 179.138 186.592 178.773 187.23C178.956 187.322 179.171 187.367 179.418 187.367C179.874 187.367 180.277 187.263 180.629 187.055C180.993 186.846 181.319 186.579 181.605 186.254C181.892 185.928 182.152 185.564 182.387 185.16C182.621 184.757 182.842 184.359 183.051 183.969C183.181 183.695 183.318 183.559 183.461 183.559C183.539 183.559 183.611 183.585 183.676 183.637C183.741 183.689 183.773 183.754 183.773 183.832C183.773 183.949 183.747 184.06 183.695 184.164ZM177.66 184.926C177.66 185.238 177.68 185.525 177.719 185.785C177.758 186.046 177.829 186.267 177.934 186.449C178.194 185.993 178.435 185.531 178.656 185.062C178.878 184.581 179.092 184.079 179.301 183.559C179.483 183.077 179.62 182.68 179.711 182.367C179.802 182.042 179.848 181.788 179.848 181.605C179.848 181.176 179.704 180.961 179.418 180.961C179.223 180.961 179.021 181.065 178.812 181.273C178.617 181.482 178.428 181.768 178.246 182.133C178.077 182.497 177.934 182.921 177.816 183.402C177.712 183.871 177.66 184.379 177.66 184.926ZM201.176 184.516C200.915 185.167 200.564 185.902 200.121 186.723C199.691 187.53 199.164 188.298 198.539 189.027C197.914 189.743 197.191 190.349 196.371 190.844C195.551 191.326 194.62 191.566 193.578 191.566C193.031 191.566 192.53 191.475 192.074 191.293C191.618 191.124 191.195 190.844 190.805 190.453C190.427 190.062 190.062 189.555 189.711 188.93C189.372 188.305 189.034 187.543 188.695 186.645C188.656 186.514 188.617 186.365 188.578 186.195C188.526 186.026 188.5 185.844 188.5 185.648C188.5 185.362 188.539 185.062 188.617 184.75C188.682 184.424 188.812 184.132 189.008 183.871C189.086 183.78 189.177 183.676 189.281 183.559C189.385 183.428 189.496 183.305 189.613 183.188C189.717 183.057 189.828 182.947 189.945 182.855C190.062 182.751 190.167 182.68 190.258 182.641C190.466 182.315 190.688 181.951 190.922 181.547C191.156 181.143 191.384 180.727 191.605 180.297C191.827 179.854 192.035 179.405 192.23 178.949C192.426 178.493 192.582 178.044 192.699 177.602C192.738 177.419 192.771 177.243 192.797 177.074C192.823 176.905 192.855 176.762 192.895 176.645C192.921 176.54 192.999 176.384 193.129 176.176C193.259 175.967 193.409 175.74 193.578 175.492C193.76 175.245 193.943 174.991 194.125 174.73C194.32 174.47 194.496 174.242 194.652 174.047C194.874 173.747 195.062 173.533 195.219 173.402C195.375 173.272 195.531 173.207 195.688 173.207C195.87 173.207 196.013 173.266 196.117 173.383C196.234 173.487 196.293 173.598 196.293 173.715C196.293 173.819 196.273 173.923 196.234 174.027C196.195 174.132 196.176 174.32 196.176 174.594C196.176 174.841 196.195 175.128 196.234 175.453C196.273 175.779 196.345 176.124 196.449 176.488C196.514 176.762 196.618 177.204 196.762 177.816C196.905 178.415 197.048 179.099 197.191 179.867C197.335 180.635 197.458 181.443 197.562 182.289C197.68 183.135 197.738 183.93 197.738 184.672C197.738 185.062 197.68 185.492 197.562 185.961C197.458 186.417 197.302 186.879 197.094 187.348C196.898 187.803 196.658 188.246 196.371 188.676C196.085 189.092 195.766 189.457 195.414 189.77C196 189.717 196.527 189.548 196.996 189.262C197.465 188.975 197.901 188.591 198.305 188.109C198.721 187.628 199.112 187.061 199.477 186.41C199.841 185.759 200.206 185.036 200.57 184.242C200.674 184.034 200.792 183.93 200.922 183.93C201.013 183.93 201.091 183.956 201.156 184.008C201.221 184.06 201.254 184.138 201.254 184.242C201.254 184.32 201.228 184.411 201.176 184.516ZM193.812 178.363C193.617 178.702 193.396 179.079 193.148 179.496C192.914 179.913 192.667 180.349 192.406 180.805C192.146 181.247 191.885 181.697 191.625 182.152C191.365 182.608 191.117 183.038 190.883 183.441C190.987 183.728 191.091 184.053 191.195 184.418C191.299 184.783 191.41 185.134 191.527 185.473C191.645 185.824 191.768 186.195 191.898 186.586C192.042 186.977 192.198 187.361 192.367 187.738C192.549 188.103 192.758 188.441 192.992 188.754C193.227 189.053 193.513 189.294 193.852 189.477C194.177 189.034 194.418 188.526 194.574 187.953C194.73 187.38 194.809 186.82 194.809 186.273C194.809 185.557 194.796 184.893 194.77 184.281C194.743 183.656 194.691 183.038 194.613 182.426C194.548 181.814 194.451 181.182 194.32 180.531C194.19 179.88 194.021 179.158 193.812 178.363ZM203.422 186C203.422 186.456 203.474 186.898 203.578 187.328C203.682 187.758 203.832 188.142 204.027 188.48C204.236 188.806 204.496 189.073 204.809 189.281C205.134 189.49 205.512 189.594 205.941 189.594C206.54 189.594 207.12 189.444 207.68 189.145C208.253 188.832 208.786 188.428 209.281 187.934C209.789 187.439 210.245 186.872 210.648 186.234C211.065 185.583 211.417 184.919 211.703 184.242C211.742 184.138 211.794 184.06 211.859 184.008C211.924 183.956 211.99 183.93 212.055 183.93C212.146 183.93 212.224 183.956 212.289 184.008C212.354 184.047 212.387 184.125 212.387 184.242C212.387 184.281 212.38 184.32 212.367 184.359C212.354 184.398 212.335 184.451 212.309 184.516C212.035 185.193 211.645 185.941 211.137 186.762C210.629 187.582 210.017 188.35 209.301 189.066C208.598 189.77 207.803 190.362 206.918 190.844C206.033 191.326 205.082 191.566 204.066 191.566C203.48 191.566 202.934 191.449 202.426 191.215C201.931 190.993 201.495 190.674 201.117 190.258C200.74 189.841 200.447 189.333 200.238 188.734C200.017 188.122 199.906 187.439 199.906 186.684C199.906 185.928 200.023 185.128 200.258 184.281C200.492 183.422 200.811 182.576 201.215 181.742C201.632 180.909 202.12 180.108 202.68 179.34C203.24 178.572 203.845 177.895 204.496 177.309C205.147 176.723 205.831 176.26 206.547 175.922C207.263 175.57 207.979 175.395 208.695 175.395C209.307 175.395 209.757 175.596 210.043 176C210.342 176.404 210.492 176.951 210.492 177.641C210.492 178.188 210.368 178.702 210.121 179.184C209.887 179.665 209.6 180.082 209.262 180.434C208.936 180.785 208.604 181.065 208.266 181.273C207.94 181.469 207.686 181.566 207.504 181.566C207.348 181.566 207.27 181.495 207.27 181.352C207.27 181.299 207.309 181.195 207.387 181.039C207.504 180.805 207.621 180.551 207.738 180.277C207.868 179.991 207.979 179.711 208.07 179.438C208.174 179.164 208.259 178.897 208.324 178.637C208.389 178.376 208.422 178.148 208.422 177.953C208.422 177.536 208.233 177.328 207.855 177.328C207.582 177.328 207.283 177.445 206.957 177.68C206.645 177.914 206.319 178.233 205.98 178.637C205.655 179.04 205.336 179.522 205.023 180.082C204.724 180.629 204.451 181.228 204.203 181.879C203.969 182.517 203.78 183.188 203.637 183.891C203.493 184.594 203.422 185.297 203.422 186ZM225.355 184.516C225.082 185.245 224.737 186.007 224.32 186.801C223.917 187.595 223.467 188.324 222.973 188.988C222.478 189.639 221.951 190.18 221.391 190.609C220.831 191.026 220.271 191.234 219.711 191.234C219.333 191.234 219.021 191.143 218.773 190.961C218.526 190.766 218.324 190.531 218.168 190.258C218.025 189.971 217.921 189.665 217.855 189.34C217.79 189.014 217.758 188.715 217.758 188.441C217.758 188.025 217.803 187.543 217.895 186.996C217.999 186.449 218.194 185.824 218.48 185.121C218.038 185.72 217.569 186.332 217.074 186.957C216.592 187.569 216.098 188.122 215.59 188.617C215.095 189.112 214.594 189.522 214.086 189.848C213.591 190.16 213.122 190.316 212.68 190.316C212.471 190.316 212.25 190.264 212.016 190.16C211.781 190.043 211.566 189.88 211.371 189.672C211.163 189.451 210.993 189.184 210.863 188.871C210.733 188.546 210.668 188.174 210.668 187.758C210.668 187.055 210.831 186.28 211.156 185.434C211.482 184.574 211.892 183.715 212.387 182.855C212.895 181.996 213.454 181.163 214.066 180.355C214.678 179.548 215.271 178.845 215.844 178.246C216.365 177.686 216.853 177.211 217.309 176.82C217.777 176.43 218.214 176.117 218.617 175.883C219.034 175.635 219.424 175.46 219.789 175.355C220.154 175.238 220.505 175.173 220.844 175.16C221.156 175.16 221.417 175.199 221.625 175.277C221.833 175.342 221.996 175.434 222.113 175.551C222.23 175.668 222.309 175.805 222.348 175.961C222.4 176.117 222.426 176.28 222.426 176.449C222.426 176.632 222.374 176.866 222.27 177.152C222.165 177.439 222.022 177.725 221.84 178.012C221.658 178.298 221.443 178.546 221.195 178.754C220.961 178.949 220.707 179.047 220.434 179.047C220.329 179.047 220.264 179.008 220.238 178.93C220.212 178.852 220.199 178.754 220.199 178.637C220.199 178.415 220.225 178.155 220.277 177.855C220.329 177.556 220.355 177.296 220.355 177.074C220.355 176.879 220.329 176.742 220.277 176.664C220.238 176.573 220.147 176.527 220.004 176.527C219.665 176.671 219.301 176.951 218.91 177.367C218.533 177.771 218.155 178.253 217.777 178.812C217.4 179.359 217.035 179.958 216.684 180.609C216.345 181.247 216.039 181.885 215.766 182.523C215.505 183.148 215.297 183.747 215.141 184.32C214.984 184.88 214.906 185.349 214.906 185.727C214.906 186 214.945 186.215 215.023 186.371C215.102 186.527 215.199 186.605 215.316 186.605C215.408 186.605 215.551 186.521 215.746 186.352C215.941 186.182 216.163 185.961 216.41 185.688C216.671 185.414 216.938 185.108 217.211 184.77C217.484 184.418 217.751 184.073 218.012 183.734C218.285 183.396 218.533 183.077 218.754 182.777C218.975 182.478 219.151 182.23 219.281 182.035C219.62 181.54 219.854 181.156 219.984 180.883C220.128 180.609 220.277 180.473 220.434 180.473C220.499 180.473 220.59 180.525 220.707 180.629C220.837 180.733 220.961 180.857 221.078 181C221.208 181.13 221.319 181.267 221.41 181.41C221.501 181.553 221.547 181.658 221.547 181.723C221.547 181.905 221.462 182.165 221.293 182.504C221.124 182.829 220.889 183.357 220.59 184.086C220.251 184.867 219.997 185.596 219.828 186.273C219.672 186.951 219.594 187.549 219.594 188.07C219.594 188.253 219.607 188.435 219.633 188.617C219.659 188.799 219.704 188.969 219.77 189.125C219.835 189.268 219.926 189.392 220.043 189.496C220.16 189.587 220.316 189.633 220.512 189.633C220.824 189.633 221.143 189.509 221.469 189.262C221.807 189.001 222.126 188.676 222.426 188.285C222.738 187.895 223.031 187.478 223.305 187.035C223.578 186.579 223.819 186.15 224.027 185.746C224.236 185.342 224.398 185.004 224.516 184.73C224.646 184.444 224.724 184.281 224.75 184.242C224.854 184.034 224.978 183.93 225.121 183.93C225.199 183.93 225.271 183.956 225.336 184.008C225.401 184.06 225.434 184.138 225.434 184.242C225.434 184.32 225.408 184.411 225.355 184.516ZM239.477 184.516C239.021 185.544 238.52 186.514 237.973 187.426C237.439 188.324 236.879 189.112 236.293 189.789C235.707 190.453 235.108 190.98 234.496 191.371C233.884 191.762 233.279 191.957 232.68 191.957C232.263 191.957 231.898 191.872 231.586 191.703C231.286 191.534 231.033 191.299 230.824 191C230.629 190.701 230.479 190.342 230.375 189.926C230.284 189.509 230.238 189.053 230.238 188.559C230.238 187.882 230.368 187.139 230.629 186.332C230.902 185.512 231.241 184.678 231.645 183.832C232.061 182.986 232.517 182.152 233.012 181.332C233.52 180.512 234.008 179.75 234.477 179.047C234.151 179.268 233.773 179.548 233.344 179.887C232.927 180.225 232.484 180.596 232.016 181C231.56 181.404 231.091 181.833 230.609 182.289C230.128 182.732 229.672 183.174 229.242 183.617C228.812 184.047 228.415 184.464 228.051 184.867C227.686 185.271 227.387 185.635 227.152 185.961C226.436 186.938 225.85 187.816 225.395 188.598C224.939 189.379 224.581 190.017 224.32 190.512C224.138 190.876 223.956 191.124 223.773 191.254C223.591 191.384 223.402 191.449 223.207 191.449C223.038 191.449 222.862 191.397 222.68 191.293C222.497 191.202 222.406 191.026 222.406 190.766C222.406 190.609 222.478 190.29 222.621 189.809C222.764 189.327 222.96 188.754 223.207 188.09C223.441 187.413 223.715 186.671 224.027 185.863C224.327 185.056 224.646 184.242 224.984 183.422C225.31 182.589 225.635 181.781 225.961 181C226.286 180.206 226.586 179.496 226.859 178.871C227.133 178.246 227.367 177.732 227.562 177.328C227.758 176.911 227.888 176.671 227.953 176.605C228.122 176.436 228.396 176.404 228.773 176.508C229.164 176.612 229.548 176.775 229.926 176.996C230.108 177.113 230.245 177.23 230.336 177.348C230.44 177.465 230.518 177.576 230.57 177.68C230.596 177.745 230.603 177.803 230.59 177.855C230.577 177.908 230.557 177.953 230.531 177.992C230.492 178.031 230.342 178.266 230.082 178.695C229.822 179.112 229.503 179.652 229.125 180.316C228.747 180.967 228.331 181.703 227.875 182.523C227.419 183.344 226.983 184.171 226.566 185.004C227.191 184.145 227.797 183.376 228.383 182.699C228.969 182.022 229.49 181.436 229.945 180.941C230.466 180.382 230.967 179.88 231.449 179.438C232.842 178.214 233.923 177.302 234.691 176.703C235.473 176.104 236.072 175.805 236.488 175.805C236.658 175.805 236.833 175.863 237.016 175.98C237.211 176.085 237.387 176.228 237.543 176.41C237.699 176.592 237.829 176.801 237.934 177.035C238.038 177.27 238.09 177.51 238.09 177.758C238.09 178.005 237.973 178.344 237.738 178.773C237.504 179.19 237.211 179.685 236.859 180.258C236.508 180.818 236.124 181.443 235.707 182.133C235.29 182.81 234.906 183.526 234.555 184.281C234.203 185.036 233.91 185.818 233.676 186.625C233.441 187.432 233.324 188.24 233.324 189.047C233.324 189.424 233.376 189.75 233.48 190.023C233.598 190.297 233.786 190.434 234.047 190.434C234.32 190.434 234.659 190.245 235.062 189.867C235.479 189.49 235.909 189.001 236.352 188.402C236.807 187.803 237.257 187.139 237.699 186.41C238.155 185.668 238.552 184.945 238.891 184.242C238.995 184.034 239.112 183.93 239.242 183.93C239.307 183.93 239.372 183.956 239.438 184.008C239.516 184.047 239.555 184.125 239.555 184.242C239.555 184.32 239.529 184.411 239.477 184.516Z" fill="white"/>
<defs>
<filter id="filter0_d_13_191" x="0" y="0" width="337" height="390.601" filterUnits="userSpaceOnUse" color-interpolation-filters="sRGB">
<feFlood flood-opacity="0" result="BackgroundImageFix"/>
<feColorMatrix in="SourceAlpha" type="matrix" values="0 0 0 0 0 0 0 0 0 0 0 0 0 0 0 0 0 0 127 0" result="hardAlpha"/>
<feOffset dy="4"/>
<feGaussianBlur stdDeviation="2"/>
<feComposite in2="hardAlpha" operator="out"/>
<feColorMatrix type="matrix" values="0 0 0 0 0 0 0 0 0 0 0 0 0 0 0 0 0 0 0.25 0"/>
<feBlend mode="normal" in2="BackgroundImageFix" result="effect1_dropShadow_13_191"/>
<feBlend mode="normal" in="SourceGraphic" in2="effect1_dropShadow_13_191" result="shape"/>
</filter>
</defs>
</svg>
